<svg xmlns="http://www.w3.org/2000/svg" xmlns:xlink="http://www.w3.org/1999/xlink" width="1587" zoomAndPan="magnify" viewBox="0 0 1190.25 1683.749949" height="2245" preserveAspectRatio="xMidYMid meet" version="1.0"><defs><clipPath id="0bae66da74"><path d="M 29.738281 276.539062 L 1159 276.539062 L 1159 1406.539062 L 29.738281 1406.539062 Z M 29.738281 276.539062 " clip-rule="nonzero"/></clipPath></defs><g clip-path="url(#0bae66da74)"><path fill="#ffffff" d="M 594.351562 276.925781 C 282.574219 276.925781 29.738281 529.761719 29.738281 841.539062 C 29.738281 1153.316406 282.574219 1406.152344 594.351562 1406.152344 C 906.128906 1406.152344 1158.964844 1153.316406 1158.964844 841.539062 C 1159.738281 529.761719 907.679688 276.925781 594.351562 276.925781 Z M 594.351562 276.925781 " fill-opacity="1" fill-rule="nonzero"/></g><path fill="#000000" d="M 896.046875 600.339844 L 892.167969 597.238281 C 878.984375 586.378906 862.695312 581.726562 847.1875 583.277344 C 830.898438 584.828125 816.164062 591.808594 805.304688 604.992188 L 667.253906 767.859375 L 585.042969 866.359375 L 525.324219 938.484375 L 484.21875 895.054688 L 460.953125 871.011719 L 380.292969 786.476562 C 368.660156 774.066406 353.148438 767.859375 336.863281 767.085938 C 321.351562 766.308594 305.0625 772.515625 293.429688 784.148438 L 289.550781 788.027344 C 264.734375 811.292969 263.957031 850.847656 287.226562 875.664062 L 367.109375 959.425781 L 390.375 984.246094 L 482.667969 1081.191406 C 493.527344 1092.046875 507.488281 1099.027344 521.449219 1099.804688 C 522.222656 1099.804688 522.222656 1099.804688 523 1099.804688 C 523.773438 1099.804688 524.550781 1099.804688 526.101562 1099.804688 C 526.101562 1099.804688 526.101562 1099.804688 526.875 1099.804688 C 529.203125 1099.804688 531.53125 1099.804688 534.632812 1099.804688 C 550.917969 1098.253906 565.65625 1091.273438 576.511719 1078.089844 L 713.789062 915.21875 L 766.527344 850.847656 L 903.800781 687.976562 C 925.519531 661.609375 922.414062 622.828125 896.046875 600.339844 Z M 896.046875 600.339844 " fill-opacity="1" fill-rule="nonzero"/></svg>
