<svg xmlns="http://www.w3.org/2000/svg" xmlns:xlink="http://www.w3.org/1999/xlink" width="1587" zoomAndPan="magnify" viewBox="0 0 1190.25 1683.749949" height="2245" preserveAspectRatio="xMidYMid meet" version="1.0"><defs><clipPath id="4404960a1e"><path d="M 695 236.34375 L 1048.292969 236.34375 L 1048.292969 590 L 695 590 Z M 695 236.34375 " clip-rule="nonzero"/></clipPath><clipPath id="67ea661888"><path d="M 140.84375 236.34375 L 1048.292969 236.34375 L 1048.292969 1446.523438 L 140.84375 1446.523438 Z M 140.84375 236.34375 " clip-rule="nonzero"/></clipPath></defs><g clip-path="url(#4404960a1e)"><path fill="#ffffff" d="M 1048.65625 589.332031 L 695.621094 236.296875 L 695.621094 589.332031 Z M 1048.65625 589.332031 " fill-opacity="1" fill-rule="nonzero"/></g><g clip-path="url(#67ea661888)"><path fill="#ffffff" d="M 594.75 589.332031 L 594.75 236.296875 L 241.71875 236.296875 C 186.007812 236.296875 140.84375 281.402344 140.84375 337.109375 L 140.84375 1345.839844 C 140.84375 1401.609375 186.007812 1446.699219 241.71875 1446.699219 L 947.78125 1446.820312 C 1003.445312 1446.820312 1048.65625 1401.609375 1048.65625 1345.933594 L 1048.65625 690.203125 L 695.621094 690.203125 C 639.914062 690.203125 594.75 644.980469 594.75 589.332031 Z M 594.75 589.332031 " fill-opacity="1" fill-rule="nonzero"/></g></svg>