<svg xmlns="http://www.w3.org/2000/svg" xmlns:xlink="http://www.w3.org/1999/xlink" width="1587" zoomAndPan="magnify" viewBox="0 0 1190.25 1683.749949" height="2245" preserveAspectRatio="xMidYMid meet" version="1.2"><defs><clipPath id="20e686973f"><path d="M 54.351562 301.152344 L 1134.898438 301.152344 L 1134.898438 1381.699219 L 54.351562 1381.699219 Z M 54.351562 301.152344 "/></clipPath></defs><g id="5f07c8417b"><g clip-rule="nonzero" clip-path="url(#20e686973f)"><path style=" stroke:none;fill-rule:nonzero;fill:#ffffff;fill-opacity:1;" d="M 297.425781 301.152344 L 891.1875 301.152344 C 958.289062 301.152344 1019.054688 328.371094 1063.367188 372.683594 C 1107.042969 416.359375 1134.898438 477.761719 1134.898438 544.226562 L 1134.898438 1137.992188 C 1134.898438 1205.089844 1107.042969 1265.859375 1063.367188 1310.167969 C 1019.054688 1353.847656 958.289062 1381.699219 891.1875 1381.699219 L 297.425781 1381.699219 C 230.960938 1381.699219 169.558594 1353.847656 125.882812 1310.167969 C 81.570312 1265.859375 54.351562 1205.089844 54.351562 1137.992188 L 54.351562 544.226562 C 54.351562 477.761719 81.570312 416.359375 125.882812 372.683594 C 169.558594 328.371094 230.960938 301.152344 297.425781 301.152344 Z M 891.1875 397.371094 L 297.425781 397.371094 C 256.914062 397.371094 220.199219 413.828125 193.613281 440.414062 C 167.027344 467 150.570312 503.714844 150.570312 544.226562 L 150.570312 1137.992188 C 150.570312 1178.503906 167.027344 1215.21875 193.613281 1241.804688 C 220.199219 1269.023438 256.914062 1285.480469 297.425781 1285.480469 L 891.1875 1285.480469 C 931.703125 1285.480469 968.414062 1269.023438 995.003906 1241.804688 C 1022.222656 1215.21875 1038.679688 1178.503906 1038.679688 1137.992188 L 1038.679688 544.226562 C 1038.679688 503.714844 1022.222656 467 995.003906 440.414062 C 968.414062 413.828125 931.703125 397.371094 891.1875 397.371094 Z M 891.1875 397.371094 "/></g><path style=" stroke:none;fill-rule:nonzero;fill:#ffffff;fill-opacity:1;" d="M 897.519531 489.789062 C 910.8125 489.789062 923.472656 494.855469 931.703125 503.714844 C 940.5625 512.578125 946.261719 524.605469 946.261719 537.898438 C 946.261719 551.191406 940.5625 563.851562 931.703125 572.082031 C 923.472656 580.941406 910.8125 586.640625 897.519531 586.640625 C 884.226562 586.640625 872.199219 580.941406 863.335938 572.082031 C 854.472656 563.851562 849.410156 551.191406 849.410156 537.898438 C 849.410156 524.605469 854.472656 512.578125 863.335938 503.714844 C 872.199219 494.855469 884.226562 489.789062 897.519531 489.789062 Z M 897.519531 489.789062 "/><path style=" stroke:none;fill-rule:nonzero;fill:#ffffff;fill-opacity:1;" d="M 594.308594 579.042969 C 667.105469 579.042969 732.304688 608.796875 779.777344 655.636719 C 827.253906 703.113281 857.007812 768.945312 857.007812 841.109375 C 857.007812 913.90625 827.253906 979.105469 779.777344 1026.582031 C 732.304688 1074.054688 667.105469 1103.808594 594.308594 1103.808594 C 522.144531 1103.808594 456.3125 1074.054688 408.835938 1026.582031 C 361.992188 979.105469 332.242188 913.90625 332.242188 841.109375 C 332.242188 768.945312 361.992188 703.113281 408.835938 655.636719 C 456.3125 608.796875 522.144531 579.042969 594.308594 579.042969 Z M 711.414062 724.636719 C 681.664062 694.882812 639.882812 675.894531 594.308594 675.894531 C 548.730469 675.894531 507.585938 694.882812 477.835938 724.636719 C 448.082031 754.386719 429.09375 795.53125 429.09375 841.109375 C 429.09375 886.6875 448.082031 928.464844 477.835938 958.214844 C 507.585938 987.96875 548.730469 1006.324219 594.308594 1006.324219 C 639.882812 1006.324219 681.664062 987.96875 711.414062 958.214844 C 741.164062 928.464844 759.523438 886.6875 759.523438 841.109375 C 759.523438 795.53125 741.164062 754.386719 711.414062 724.636719 Z M 711.414062 724.636719 "/></g></svg>