<svg xmlns="http://www.w3.org/2000/svg" xmlns:xlink="http://www.w3.org/1999/xlink" width="1587" zoomAndPan="magnify" viewBox="0 0 1190.25 1683.749949" height="2245" preserveAspectRatio="xMidYMid meet" version="1.0"><defs><clipPath id="c91c8e47e3"><path d="M 87.988281 334.789062 L 1101.839844 334.789062 L 1101.839844 1348.640625 L 87.988281 1348.640625 Z M 87.988281 334.789062 " clip-rule="nonzero"/></clipPath></defs><g clip-path="url(#c91c8e47e3)"><path fill="#231f20" d="M 594.90625 1226.011719 C 383.011719 1226.011719 210.621094 1053.621094 210.621094 841.722656 C 210.621094 629.824219 383.011719 457.433594 594.90625 457.433594 C 806.804688 457.433594 979.195312 629.824219 979.195312 841.722656 C 979.195312 1053.621094 806.804688 1226.011719 594.90625 1226.011719 Z M 594.90625 334.800781 C 315.394531 334.800781 87.988281 562.195312 87.988281 841.722656 C 87.988281 1121.234375 315.394531 1348.640625 594.90625 1348.640625 C 874.433594 1348.640625 1101.828125 1121.234375 1101.828125 841.722656 C 1101.828125 562.195312 874.433594 334.800781 594.90625 334.800781 " fill-opacity="1" fill-rule="nonzero"/></g><path fill="#231f20" d="M 746.003906 917.347656 L 625.566406 850.511719 L 625.566406 619.058594 C 625.566406 598.746094 609.097656 582.269531 588.777344 582.269531 C 568.464844 582.269531 551.988281 598.746094 551.988281 619.058594 L 551.988281 871.710938 C 551.988281 871.78125 551.988281 871.851562 551.988281 871.925781 L 551.988281 872.164062 C 551.988281 872.441406 552.023438 872.703125 552.035156 872.964844 C 552.046875 873.863281 552.082031 874.761719 552.167969 875.660156 C 552.226562 876.222656 552.3125 876.773438 552.394531 877.324219 C 552.476562 877.9375 552.550781 878.546875 552.667969 879.144531 C 552.800781 879.839844 552.980469 880.511719 553.148438 881.183594 C 553.269531 881.648438 553.375 882.117188 553.507812 882.582031 C 553.710938 883.277344 553.964844 883.972656 554.214844 884.65625 C 554.371094 885.085938 554.515625 885.527344 554.683594 885.949219 C 554.945312 886.582031 555.234375 887.207031 555.53125 887.828125 C 555.746094 888.296875 555.964844 888.773438 556.203125 889.242188 C 556.488281 889.769531 556.789062 890.285156 557.101562 890.796875 C 557.414062 891.324219 557.710938 891.851562 558.046875 892.367188 C 558.335938 892.796875 558.632812 893.195312 558.933594 893.613281 C 559.339844 894.175781 559.746094 894.738281 560.191406 895.289062 C 560.464844 895.636719 560.777344 895.972656 561.066406 896.308594 C 561.554688 896.871094 562.035156 897.421875 562.5625 897.949219 C 562.886719 898.28125 563.246094 898.59375 563.578125 898.917969 C 564.09375 899.398438 564.609375 899.886719 565.148438 900.34375 C 565.617188 900.738281 566.105469 901.097656 566.597656 901.457031 C 567.050781 901.804688 567.484375 902.152344 567.960938 902.488281 C 568.707031 902.988281 569.472656 903.457031 570.25 903.910156 C 570.476562 904.042969 570.691406 904.199219 570.921875 904.332031 L 571.125 904.4375 C 571.195312 904.476562 571.257812 904.523438 571.328125 904.558594 L 710.292969 981.683594 C 715.945312 984.820312 722.078125 986.304688 728.113281 986.304688 C 741.046875 986.304688 753.597656 979.480469 760.316406 967.371094 C 770.171875 949.597656 763.765625 927.203125 746.003906 917.347656 " fill-opacity="1" fill-rule="nonzero"/></svg>