<svg xmlns="http://www.w3.org/2000/svg" xmlns:xlink="http://www.w3.org/1999/xlink" width="1587" zoomAndPan="magnify" viewBox="0 0 1190.25 1683.749949" height="2245" preserveAspectRatio="xMidYMid meet" version="1.0"><defs><clipPath id="3e92d5fe12"><path d="M 192.292969 339 L 997 339 L 997 1366.894531 L 192.292969 1366.894531 Z M 192.292969 339 " clip-rule="nonzero"/></clipPath></defs><g clip-path="url(#3e92d5fe12)"><path fill="#2e6593" d="M 645.785156 505.914062 C 646.65625 506.203125 647.53125 506.492188 648.402344 506.785156 C 657.5625 480.609375 693.769531 386.820312 753.097656 354.976562 C 822.460938 317.457031 900.546875 362.390625 922.792969 418.664062 C 945.480469 475.375 966.855469 555.644531 869.574219 611.046875 C 794.105469 654.230469 699.441406 621.949219 660.617188 605.375 C 649.710938 615.84375 627.898438 614.097656 616.121094 612.355469 C 600.851562 610.171875 591.691406 610.171875 575.550781 611.480469 C 562.464844 612.789062 542.398438 615.40625 529.746094 604.066406 C 491.792969 620.640625 396.257812 653.359375 320.351562 610.171875 C 223.074219 554.335938 244.449219 474.503906 266.695312 417.792969 C 289.378906 361.082031 367.03125 316.148438 436.828125 353.667969 C 498.335938 386.820312 534.542969 486.28125 541.960938 508.53125 C 560.28125 503.730469 590.820312 512.019531 590.820312 512.019531 C 590.820312 512.019531 624.84375 500.675781 645.785156 505.914062 Z M 435.519531 399.472656 C 397.128906 378.09375 321.226562 396.417969 360.921875 456.179688 C 393.203125 505.039062 489.175781 529.46875 523.640625 536.886719 C 525.382812 529.46875 528 522.925781 531.492188 517.691406 C 514.042969 489.773438 466.492188 416.921875 435.519531 399.472656 Z M 829.003906 457.492188 C 868.265625 397.726562 792.359375 379.402344 753.972656 400.78125 C 723.433594 417.792969 676.320312 490.207031 658.4375 518.5625 C 661.054688 524.234375 663.234375 530.777344 664.980469 538.628906 C 698.132812 531.214844 796.285156 506.785156 829.003906 457.488281 Z M 219.582031 908.121094 L 545.449219 908.121094 L 545.449219 1366.605469 L 219.582031 1366.605469 Z M 644.039062 908.121094 L 969.90625 908.121094 L 969.90625 1366.605469 L 644.039062 1366.605469 Z M 192.535156 659.46875 L 545.449219 659.46875 L 545.449219 876.277344 L 192.535156 876.277344 Z M 644.039062 659.46875 L 996.953125 659.46875 L 996.953125 876.710938 L 644.039062 876.710938 Z M 644.039062 659.46875 " fill-opacity="1" fill-rule="evenodd"/></g></svg>