<svg xmlns="http://www.w3.org/2000/svg" xmlns:xlink="http://www.w3.org/1999/xlink" width="1587" zoomAndPan="magnify" viewBox="0 0 1190.25 1683.749949" height="2245" preserveAspectRatio="xMidYMid meet" version="1.0"><defs><g/></defs><g fill="#2e6593" fill-opacity="1"><g transform="translate(88.372182, 941.983027)"><g><path d="M 25.5625 0 L 25.5625 -300.375 L 60.921875 -300.375 L 60.921875 -160.625 L 61.359375 -160.625 L 187.890625 -300.375 L 231.359375 -300.375 L 123.125 -181.078125 L 239.015625 0 L 197.265625 0 L 100.125 -155.9375 L 60.921875 -114.609375 L 60.921875 0 Z M 25.5625 0 "/></g></g></g><g fill="#2e6593" fill-opacity="1"><g transform="translate(331.645541, 941.983027)"><g><path d="M 91.609375 8.515625 C 75.410156 8.515625 61.0625 5.816406 48.5625 0.421875 C 36.070312 -4.972656 26.273438 -12.566406 19.171875 -22.359375 C 12.066406 -32.160156 8.515625 -43.453125 8.515625 -56.234375 C 8.515625 -73.566406 15.972656 -88.625 30.890625 -101.40625 C 45.804688 -114.1875 70.726562 -122.707031 105.65625 -126.96875 L 158.921875 -133.359375 C 164.316406 -133.921875 168.578125 -135.691406 171.703125 -138.671875 C 174.828125 -141.660156 176.390625 -145.425781 176.390625 -149.96875 C 176.390625 -163.320312 170.566406 -174.046875 158.921875 -182.140625 C 147.273438 -190.234375 132.078125 -194.28125 113.328125 -194.28125 C 99.984375 -194.28125 88.054688 -191.796875 77.546875 -186.828125 C 67.035156 -181.859375 58.722656 -175.394531 52.609375 -167.4375 C 46.503906 -159.488281 43.171875 -151.253906 42.609375 -142.734375 L 13.203125 -155.09375 C 14.628906 -167.019531 19.816406 -178.164062 28.765625 -188.53125 C 37.710938 -198.894531 49.640625 -207.34375 64.546875 -213.875 C 79.460938 -220.414062 96.148438 -223.6875 114.609375 -223.6875 C 133.078125 -223.6875 149.335938 -220.488281 163.390625 -214.09375 C 177.453125 -207.707031 188.457031 -198.617188 196.40625 -186.828125 C 204.363281 -175.035156 208.34375 -161.046875 208.34375 -144.859375 L 208.34375 -35.796875 C 208.34375 -31.523438 209.40625 -28.039062 211.53125 -25.34375 C 213.664062 -22.644531 216.4375 -21.296875 219.84375 -21.296875 C 226.375 -21.296875 232.195312 -25.554688 237.3125 -34.078125 L 254.78125 -13.640625 C 250.238281 -7.097656 243.921875 -1.769531 235.828125 2.34375 C 227.734375 6.457031 219.566406 8.515625 211.328125 8.515625 C 200.816406 8.515625 192.4375 5.179688 186.1875 -1.484375 C 179.9375 -8.160156 176.53125 -16.328125 175.96875 -25.984375 L 175.53125 -35.796875 L 175.109375 -35.796875 C 167.441406 -22.160156 156.4375 -11.363281 142.09375 -3.40625 C 127.75 4.539062 110.921875 8.515625 91.609375 8.515625 Z M 97.140625 -20.875 C 112.191406 -20.875 125.613281 -23.925781 137.40625 -30.03125 C 149.195312 -36.144531 158.5 -44.523438 165.3125 -55.171875 C 172.125 -65.828125 175.53125 -78.113281 175.53125 -92.03125 L 175.53125 -107.375 L 109.078125 -99.265625 C 83.222656 -96.140625 65.394531 -90.742188 55.59375 -83.078125 C 45.800781 -75.410156 40.90625 -66.609375 40.90625 -56.671875 C 40.90625 -45.867188 46.160156 -37.203125 56.671875 -30.671875 C 67.179688 -24.140625 80.671875 -20.875 97.140625 -20.875 Z M 97.140625 -20.875 "/></g></g></g><g fill="#2e6593" fill-opacity="1"><g transform="translate(586.422212, 941.983027)"><g><path d="M 122.28125 8.515625 C 101.257812 8.515625 82.507812 3.472656 66.03125 -6.609375 C 49.5625 -16.691406 36.566406 -30.46875 27.046875 -47.9375 C 17.535156 -65.40625 12.78125 -85.21875 12.78125 -107.375 C 12.78125 -129.8125 17.46875 -149.765625 26.84375 -167.234375 C 36.21875 -184.703125 49.140625 -198.476562 65.609375 -208.5625 C 82.085938 -218.644531 100.835938 -223.6875 121.859375 -223.6875 C 139.753906 -223.6875 155.800781 -219.78125 170 -211.96875 C 184.195312 -204.15625 195.84375 -193.148438 204.9375 -178.953125 L 205.359375 -178.953125 L 205.359375 -313.15625 L 238.171875 -313.15625 L 238.171875 0 L 209.625 0 L 206.640625 -37.0625 L 206.21875 -37.0625 C 197.125 -22.863281 185.332031 -11.71875 170.84375 -3.625 C 156.363281 4.46875 140.175781 8.515625 122.28125 8.515625 Z M 126.109375 -20.875 C 141.734375 -20.875 155.582031 -24.707031 167.65625 -32.375 C 179.726562 -40.050781 189.242188 -50.421875 196.203125 -63.484375 C 203.160156 -76.546875 206.640625 -91.175781 206.640625 -107.375 C 206.640625 -123.84375 203.160156 -138.535156 196.203125 -151.453125 C 189.242188 -164.378906 179.726562 -174.675781 167.65625 -182.34375 C 155.582031 -190.019531 141.734375 -193.859375 126.109375 -193.859375 C 110.492188 -193.859375 96.578125 -190.019531 84.359375 -182.34375 C 72.148438 -174.675781 62.5625 -164.378906 55.59375 -151.453125 C 48.632812 -138.535156 45.15625 -123.84375 45.15625 -107.375 C 45.15625 -90.894531 48.707031 -76.117188 55.8125 -63.046875 C 62.914062 -49.984375 72.570312 -39.6875 84.78125 -32.15625 C 97 -24.632812 110.773438 -20.875 126.109375 -20.875 Z M 126.109375 -20.875 "/></g></g></g><g fill="#2e6593" fill-opacity="1"><g transform="translate(845.885416, 941.983027)"><g><path d="M 127.390625 8.515625 C 104.378906 8.515625 84.28125 3.6875 67.09375 -5.96875 C 49.914062 -15.625 36.566406 -29.113281 27.046875 -46.4375 C 17.535156 -63.769531 12.78125 -84.082031 12.78125 -107.375 C 12.78125 -130.945312 17.535156 -151.394531 27.046875 -168.71875 C 36.566406 -186.039062 49.914062 -199.53125 67.09375 -209.1875 C 84.28125 -218.851562 104.378906 -223.6875 127.390625 -223.6875 C 150.679688 -223.6875 170.921875 -218.851562 188.109375 -209.1875 C 205.296875 -199.53125 218.644531 -186.039062 228.15625 -168.71875 C 237.664062 -151.394531 242.421875 -130.945312 242.421875 -107.375 C 242.421875 -84.082031 237.664062 -63.769531 228.15625 -46.4375 C 218.644531 -29.113281 205.296875 -15.625 188.109375 -5.96875 C 170.921875 3.6875 150.679688 8.515625 127.390625 8.515625 Z M 127.390625 -20.875 C 152.390625 -20.875 172.34375 -28.753906 187.25 -44.515625 C 202.164062 -60.285156 209.625 -81.238281 209.625 -107.375 C 209.625 -133.5 202.164062 -154.441406 187.25 -170.203125 C 172.34375 -185.972656 152.390625 -193.859375 127.390625 -193.859375 C 102.398438 -193.859375 82.445312 -185.972656 67.53125 -170.203125 C 52.613281 -154.441406 45.15625 -133.5 45.15625 -107.375 C 45.15625 -81.238281 52.613281 -60.285156 67.53125 -44.515625 C 82.445312 -28.753906 102.398438 -20.875 127.390625 -20.875 Z M 127.390625 -20.875 "/></g></g></g></svg>