<svg xmlns="http://www.w3.org/2000/svg" xmlns:xlink="http://www.w3.org/1999/xlink" width="1587" zoomAndPan="magnify" viewBox="0 0 1190.25 1683.749949" height="2245" preserveAspectRatio="xMidYMid meet" version="1.0"><defs><clipPath id="380be7f583"><path d="M 74.316406 91.378906 L 1115 91.378906 L 1115 1591.554688 L 74.316406 1591.554688 Z M 74.316406 91.378906 " clip-rule="nonzero"/></clipPath></defs><g clip-path="url(#380be7f583)"><path fill="#ffffff" d="M 594.761719 91.203125 C 307.5 91.203125 74.699219 324.019531 74.699219 611.265625 C 74.699219 659.042969 81.261719 705.277344 93.355469 749.203125 C 103.816406 787.457031 118.484375 824.007812 136.980469 858.21875 C 141.449219 866.464844 146.167969 874.605469 151.046875 882.605469 L 543.136719 1561.746094 C 543.972656 1563.199219 544.734375 1564.726562 545.65625 1566.144531 C 556.4375 1581.714844 574.386719 1591.894531 594.726562 1591.894531 C 615.121094 1591.894531 633.121094 1581.574219 643.886719 1565.949219 L 645.554688 1563.058594 L 1038.355469 882.726562 L 1052.542969 858.164062 C 1071.003906 823.972656 1085.652344 787.40625 1096.167969 749.203125 C 1108.210938 705.277344 1114.792969 659.042969 1114.792969 611.265625 C 1114.792969 324.019531 881.972656 91.203125 594.761719 91.203125 Z M 594.726562 829.277344 C 474.273438 829.277344 376.644531 731.648438 376.644531 611.265625 C 376.644531 490.8125 474.257812 393.167969 594.726562 393.167969 C 715.160156 393.167969 812.738281 490.8125 812.738281 611.265625 C 812.738281 731.648438 715.160156 829.277344 594.726562 829.277344 Z M 594.726562 829.277344 " fill-opacity="1" fill-rule="nonzero"/></g></svg>