<svg xmlns="http://www.w3.org/2000/svg" xmlns:xlink="http://www.w3.org/1999/xlink" width="1587" zoomAndPan="magnify" viewBox="0 0 1190.25 1683.749949" height="2245" preserveAspectRatio="xMidYMid meet" version="1.0"><defs><clipPath id="28145e025c"><path d="M 57.167969 303.96875 L 1132.46875 303.96875 L 1132.46875 1379.269531 L 57.167969 1379.269531 Z M 57.167969 303.96875 " clip-rule="nonzero"/></clipPath></defs><g clip-path="url(#28145e025c)"><path fill="#2e6593" d="M 594.746094 1379.128906 C 297.785156 1379.128906 57.167969 1138.511719 57.167969 841.550781 C 57.167969 544.585938 297.785156 303.96875 594.746094 303.96875 C 891.710938 303.96875 1132.328125 544.585938 1132.328125 841.550781 C 1132.328125 1138.511719 891.710938 1379.128906 594.746094 1379.128906 " fill-opacity="1" fill-rule="nonzero"/></g><path fill="#ffffff" d="M 658.09375 841.550781 L 807.1875 692.453125 C 824.6875 674.957031 824.6875 646.605469 807.1875 629.105469 C 789.691406 611.609375 761.339844 611.609375 743.839844 629.105469 L 594.746094 778.203125 L 445.652344 629.105469 C 428.152344 611.609375 399.804688 611.609375 382.304688 629.105469 C 364.804688 646.605469 364.804688 674.957031 382.304688 692.453125 L 531.398438 841.550781 L 382.304688 990.644531 C 364.804688 1008.144531 364.804688 1036.492188 382.304688 1053.992188 C 391.054688 1062.742188 402.605469 1067.117188 413.980469 1067.117188 C 425.527344 1067.117188 436.902344 1062.742188 445.652344 1053.992188 L 594.746094 904.898438 L 743.839844 1053.992188 C 752.589844 1062.742188 763.964844 1067.117188 775.515625 1067.117188 C 786.890625 1067.117188 798.441406 1062.742188 807.1875 1053.992188 C 824.6875 1036.492188 824.6875 1008.144531 807.1875 990.644531 L 658.09375 841.550781 " fill-opacity="1" fill-rule="nonzero"/></svg>